<svg width="20" height="20" fill="none" xmlns="http://www.w3.org/2000/svg"><path d="M19 2.983C19.008 1.929 18.11.99 17.055 1c-4.763.046-9.526.02-14.29.02-1.016 0-1.764.755-1.765 1.778v14.128c0 1.326.742 2.072 2.076 2.072 4.582.003 9.164.002 13.745 0 1.374 0 2.173-.804 2.174-2.184.002-2.437 0-4.873 0-7.31 0-2.174-.011-4.348.005-6.521zm-2.81-.49c-.616.634-.668 1.095-.24 1.9.071.136.079.317.08.477.005 1.416-.004 2.83.007 4.246.004.397-.104.695-.53.754-.339.047-.583-.277-.584-.752-.004-1.415-.008-2.83.006-4.246.002-.2.117-.397.164-.598.045-.191.069-.387.102-.58a85.709 85.709 0 0 1-.137-.066c-.586.587-1.18 1.167-1.75 1.77-.074.077-.054.277-.025.41.287 1.309-.04 2.405-1.092 3.268a6.226 6.226 0 0 0-.72.673c-.392.442-.38.854.052 1.255.482.447.998.857 1.494 1.29 1.594 1.386 1.203 3.495-.165 4.657-.816.693-1.778 1.06-2.829 1.188-1.206.146-2.403.126-3.543-.366-.986-.424-1.72-1.097-1.777-2.226-.055-1.088.47-1.917 1.39-2.504.977-.623 2.078-.798 3.196-.925.13-.015.262-.023.392-.04.026-.004.047-.037.116-.095-.456-.526-.595-1.141-.363-1.875-2.242.047-3.599-.923-3.814-3.304H2.54c.229-.242.346-.373.47-.498 1.293-1.292 2.581-2.59 3.887-3.868.158-.154.413-.295.625-.297 2.882-.02 5.765-.013 8.647-.012.076 0 .15.01.303.022-.127.153-.198.254-.283.341z" fill="#2189CA"/><path d="M10.335 12.678c-.931-.009-1.845.1-2.69.522-1.468.734-1.61 2.496-.285 3.463.71.518 1.53.661 2.405.778.587-.14 1.21-.2 1.752-.44 1.288-.567 1.57-2.044.599-3.058-.418-.435-.933-.78-1.414-1.15a.648.648 0 0 0-.367-.115zM8.712 4.053c-.661.197-1.073.639-1.198 1.31-.222 1.196.066 2.289.776 3.262.56.766 1.328 1.026 2.116.765.82-.271 1.196-.862 1.2-2.111-.05-.923-.349-1.974-1.215-2.802-.482-.46-1.035-.616-1.679-.424z" fill="#2189CA"/></svg>