<?xml version="1.0" encoding="utf-8"?>
<!-- Generator: Adobe Illustrator 23.0.1, SVG Export Plug-In . SVG Version: 6.00 Build 0)  -->
<svg version="1.1" id="Layer_1" xmlns="http://www.w3.org/2000/svg" xmlns:xlink="http://www.w3.org/1999/xlink" x="0px" y="0px" width="20" height="20"
	 viewBox="0 0 136.8 136.8" style="enable-background:new 0 0 136.8 136.8;" xml:space="preserve">
<style type="text/css">
	.st0{fill:#5A8641;}
</style>
<g>
	<polygon class="st0" points="51,11.7 32.6,6.9 27.8,25.2 41.1,21.6 	"/>
	<polygon class="st0" points="35.6,27.2 9.2,34.4 13.3,49.4 	"/>
	<polygon class="st0" points="125.2,51.1 130.1,32.4 111.8,27.7 115.5,41.6 	"/>
	<polygon class="st0" points="11.9,86 7.1,104.4 25.4,109.1 21.8,95.8 	"/>
	<polygon class="st0" points="102.6,9.1 87.3,13.3 109.8,35.8 	"/>
	<polygon class="st0" points="101.2,109.7 127.9,102.4 123.8,87.1 	"/>
	<polygon class="st0" points="85.9,125 104.5,129.9 109.4,111.6 95.5,115.3 	"/>
	<polygon class="st0" points="34.6,127.7 49.6,123.7 27.5,101.5 	"/>
	<g>
		<path class="st0" d="M96.8,28.4L81.2,12.8L68.4,0L46.1,22.3L12.9,55.5L0,68.4l22.5,22.5l33.2,33.2l12.7,12.7l22.2-22.2L124.2,81
			l12.6-12.6L96.8,28.4z M66.7,81.9L61.5,87c-0.9,0.9-1.9,1.3-3.1,1.3H36.2V46.6h22.1c1.2,0,2.3,0.4,3.1,1.3l5.1,5.1
			c0.9,0.9,1.3,1.9,1.3,3.1v22.7H68C68,80,67.6,81.1,66.7,81.9z M108.2,88.3h-28V46.6h7.5v34.6h20.5V88.3z"/>
		<path class="st0" d="M57.6,54.1c-0.2-0.2-0.5-0.4-0.9-0.4h-13v27.5h13c0.4,0,0.6-0.1,0.9-0.4l2.4-2.4c0.2-0.3,0.4-0.6,0.4-0.9
			V57.4c0-0.3-0.1-0.6-0.4-0.9L57.6,54.1z"/>
	</g>
</g>
</svg>
